<svg version="1" xmlns="http://www.w3.org/2000/svg" width="360" height="360" viewBox="0 0 270.000000 270.000000"><path d="M118.6 15.2c-.9 1.3-1.6 4.3-1.6 6.9 0 5 0 5-7 6.4-.3 0-2.4 1.1-4.8 2.4l-4.3 2.2-4-3.5c-2.1-2-4.6-3.6-5.4-3.6-2.9 0-6.4 2.3-7 4.7-.8 3.4.2 6 3.7 9.4 3 2.9 3.1 2.9 1.2 5.6-1 1.5-2.5 5.2-3.4 8.1l-1.7 5.4-5.1.2c-5.7.2-7.8 1.6-8.6 5.8-.7 4.1 2.3 7.3 7.1 7.4 2.1.1 4.6.2 5.6.3 1.1.1 1.7.9 1.7 2.3 0 1.3 1.4 5 3 8.3l3 5.9-3.6 3.7c-3.6 3.6-4.1 6.3-1.9 10 1.6 2.7 7 3.4 9.3 1.2 5.8-5.6 5.7-5.6 9.3-3.5 1.9 1 5.5 2.5 8.2 3.2l4.7 1.4v4.7c0 7.6 4.6 11.1 10.3 8 1.5-.8 2.8-2.4 2.8-3.5.1-1.2.2-3.6.3-5.5.1-3.2.5-3.5 5.2-5.1 2.7-1 6.5-2.5 8.4-3.5 3.3-1.7 3.4-1.7 5 .2 2.8 3.5 6.6 5.4 9.4 4.7 5.8-1.4 6.6-7.7 1.7-12.8-3.6-3.8-3.7-4-1.2-7.4 1-1.5 1.9-2.9 1.9-3.2 0-2.5 2.5-9 3.5-9.1.7 0 2.8-.2 4.7-.4 4.7-.3 4.6-.3 6.4-2.1 4.2-4.2.2-11.4-6.3-11.2-5.7.1-5.7 0-7-4.5-.7-2.3-2.2-5.9-3.4-8l-2.1-3.7 3.3-3.4c4-4.2 4.5-9 1.1-11.8-3.2-2.6-5.5-2.2-9.9 1.7-2.1 1.9-4.2 3.5-4.6 3.5-.4 0-1.9-.8-3.3-1.9-2.3-1.5-6.1-2.9-8.9-3.2-2.7-.3-4-2.1-3.7-4.9.2-1.7-.3-4.7-1.1-6.6-1.3-3.1-1.8-3.4-5.4-3.4-3 0-4.4.6-5.5 2.2zM131.4 47c10.3 3.9 15.7 18 10.7 27.8-8.2 16.2-30.6 15-37.5-2-6.3-15.6 10.7-32 26.8-25.8z"/><path d="M140 107.9c-.8.8-2.4 5.3-3.7 9.9-1.2 4.7-2.4 8.6-2.5 8.8-.2.1-1.5.5-2.8.8-1.4.3-4 .9-5.8 1.5-3.1.9-3.5.7-9.7-5.3-3.5-3.5-7.3-6.6-8.4-6.9-3.2-.8-6.7 1.7-17.3 12.2-9.1 9.1-9.9 10.3-9.4 13.1.5 3.4 1.7 5.3 5.8 8.8 1.5 1.3 3.7 3.6 4.7 5.1 1.9 2.6 1.9 3.1.5 7.7-.9 2.7-1.8 6-2 7.4-.3 1.3-.6 2.5-.7 2.6-.1 0-4 1.2-8.7 2.5-12.7 3.7-12.7 3.7-6.1 26.5 4.2 14.6 5.4 15.3 17.9 11.7l8.3-2.4 4.9 4.3c5.1 4.4 5.3 5 3.6 11.3-2.2 8.1-2.5 10.6-1.7 12.7 1.5 4 3 4.6 18.4 8.4 1.9.5 4.6 1.1 8 2 8.1 2 11.8-.8 13.4-10.1 1.2-7.1 2.7-9.8 5.7-10.2 1.6-.2 4.2-1.1 5.7-1.9 2.8-1.4 2.9-1.4 9.4 5.1 3.6 3.6 7.1 6.5 7.8 6.6.7 0 2 .2 3 .4 2 .4 5.2-2.2 17.2-14.2 9.9-9.8 10-11.5 1.2-20.4-5.9-6-6.3-6.7-5.5-9.4.9-3.1 1.4-5.2 2.2-9.3.7-3.3 1.3-3.9 4.8-4.7 1.8-.4 3.8-.9 4.5-1 4.2-1 8.3-2.8 9.6-4.3 2.2-2.5 2.3-5 .2-11.7-1-3.3-1.8-6.2-1.7-6.5.2-1.4-4.7-14.4-6.1-16.1-2.1-2.4-4.1-2.4-14.1.2l-8.2 2.2-4.7-4.4c-4.6-4.4-4.6-4.5-3.6-8.3 4.1-14.8 3.6-18.5-3-20.5-8.7-2.7-24.3-6.1-26.9-5.9-1.6.1-3.5.9-4.2 1.7zm14.8 41.2c2.8 1.2 5.2 2.6 5.2 3.1 0 .4.5.8 1.1.8 1.8 0 7 6.3 9.8 12 8 16.6-.3 37.5-17.6 44-5.4 2-13.8 2.7-19 1.6-8.8-1.9-18.1-9.6-22.4-18.4-3.8-7.9-3.2-23.8 1.2-29.7 6.1-8.1 14.6-14.4 21.4-15.7 5.3-1.1 15.3.1 20.3 2.3z"/><path d="M131.5 157.2c-16.6 8.6-18.1 30.8-2.7 41.1 2.3 1.5 5.2 3 6.4 3.3 4.2.9 11.3.6 14.3-.6 1.7-.6 3.1-1.1 3.3-1 .3.1 2.7-1.9 5.3-4.5 11.9-11.7 8.6-31-6.6-38.4-5.4-2.6-14.8-2.5-20 .1zm16.2 10.9c2.9 1.6 5.1 4.9 5.8 8.8 1.5 8.7-8.2 16.4-16.2 12.9-9.6-4.2-10.3-17.1-1.2-21.6 4.1-2.1 7.9-2.1 11.6-.1z"/></svg>